<svg width="60" height="72" viewBox="0 0 60 72" fill="none" xmlns="http://www.w3.org/2000/svg">
<style>
path {fill: #000;}
@media (prefers-color-scheme: dark) {
    path { fill: #fff; }
}
</style>
<mask id="mask0_429_1794" style="mask-type:luminance" maskUnits="userSpaceOnUse" x="20" y="21" width="38" height="48">
<path d="M20.3164 21.5093H57.1592V68.8786H20.3164V21.5093Z"/>
</mask>
<g mask="url(#mask0_429_1794)">
<mask id="mask1_429_1794" style="mask-type:luminance" maskUnits="userSpaceOnUse" x="20" y="22" width="37" height="47">
<path d="M56.659 51.2712L43.3775 22.0354C39.0271 24.2805 35.1948 27.2041 31.8806 30.8102C31.0459 31.7066 30.244 32.6442 29.471 33.6269C29.0146 34.2067 28.5746 34.7906 28.1469 35.3868C28.3361 35.9666 28.4636 36.5587 28.5376 37.1673C28.6075 37.7717 28.6198 38.3803 28.5705 38.9889C28.5252 39.5974 28.4183 40.1978 28.2539 40.7858C28.0935 41.3738 27.8714 41.9412 27.6001 42.484C27.3246 43.0309 26.9997 43.5449 26.6255 44.026C26.2514 44.5071 25.836 44.9511 25.3755 45.35C24.915 45.753 24.4174 46.1066 23.8911 46.4109C23.3607 46.7152 22.8056 46.966 22.2299 47.1634C22.1888 47.299 22.1435 47.4306 22.1024 47.5704C21.169 50.679 20.8113 53.8534 21.0374 57.0895C21.2595 60.3297 22.0449 63.4219 23.3977 66.3742C23.5498 66.7114 23.7636 67.0116 24.0391 67.2665C24.3105 67.5215 24.6189 67.7147 24.9684 67.8422C25.3179 67.9738 25.6798 68.0355 26.054 68.019C26.4241 68.0067 26.7818 67.9244 27.119 67.7682L54.9896 55.1076L55.2527 54.9925C55.594 54.8362 55.8901 54.6265 56.145 54.351C56.4041 54.0796 56.5973 53.7712 56.7289 53.4217C56.8605 53.0722 56.9181 52.7103 56.9057 52.3403C56.8934 51.9661 56.8112 51.6083 56.659 51.2712ZM44.5453 57.4637L36.0377 61.3248C35.8445 61.4194 35.643 61.4728 35.4292 61.4852C35.2153 61.4975 35.0097 61.4646 34.8083 61.3947C34.6068 61.3207 34.4259 61.2097 34.2696 61.0658C34.1092 60.9218 33.99 60.7533 33.8995 60.5559C33.8132 60.3626 33.7638 60.157 33.7597 59.9432C33.7515 59.7294 33.7885 59.5238 33.8666 59.3223C33.9448 59.1249 34.0599 58.9481 34.2079 58.796C34.3601 58.6397 34.5328 58.5246 34.7301 58.4424L43.2336 54.5771C43.4227 54.4908 43.6242 54.4456 43.8339 54.4373C44.0436 54.4291 44.2492 54.462 44.4425 54.536C44.6399 54.61 44.8167 54.717 44.9688 54.8609C45.1251 55.0048 45.2443 55.1734 45.3307 55.3625C45.417 55.5558 45.4664 55.7573 45.4705 55.967C45.4787 56.1767 45.4458 56.3782 45.3718 56.5755C45.2978 56.7729 45.1909 56.9497 45.0469 57.1019C44.903 57.254 44.7344 57.3774 44.5453 57.4637Z"/>
</mask>
<g mask="url(#mask1_429_1794)">
<path d="M21.2434 18.1084L15.8115 67.4844L56.4867 71.9581L61.9226 22.5863L21.2434 18.1084Z"/>
</g>
</g>
<mask id="mask2_429_1794" style="mask-type:luminance" maskUnits="userSpaceOnUse" x="32" y="0" width="10" height="13">
<path d="M32.9482 0H41.3695V12.0356H32.9482V0Z"/>
</mask>
<g mask="url(#mask2_429_1794)">
<mask id="mask3_429_1794" style="mask-type:luminance" maskUnits="userSpaceOnUse" x="33" y="-1" width="8" height="13">
<path d="M35.0608 1.57468L39.736 11.8627H39.7484C39.8964 11.8134 40.0321 11.7311 40.1472 11.6201C40.2665 11.5132 40.3528 11.3857 40.4186 11.2377C40.4803 11.0897 40.5091 10.9375 40.5091 10.7772C40.5091 10.6168 40.4721 10.4647 40.4063 10.3207L36.4794 1.65281C36.2368 1.11825 35.8667 0.69884 35.3609 0.398669C34.8593 0.0943874 34.3124 -0.0371941 33.7285 0.00392458C34.3247 0.398669 34.7688 0.920883 35.0608 1.57468Z"/>
</mask>
<g mask="url(#mask3_429_1794)">
<path d="M33.8068 -0.740234L32.4375 11.723L40.4311 12.603L41.8003 0.139717L33.8068 -0.740234Z"/>
</g>
</g>
<mask id="mask4_429_1794" style="mask-type:luminance" maskUnits="userSpaceOnUse" x="43" y="20" width="17" height="36">
<path d="M43.4746 20.4568H59.2644V55.1943H43.4746V20.4568Z"/>
</mask>
<g mask="url(#mask4_429_1794)">
<mask id="mask5_429_1794" style="mask-type:luminance" maskUnits="userSpaceOnUse" x="44" y="21" width="16" height="35">
<path d="M44.2844 21.5959L44.1816 21.6412L57.4673 50.8934C57.6235 51.2388 57.7222 51.5965 57.7674 51.9707C57.8168 52.3449 57.8044 52.715 57.7386 53.085C57.6687 53.4551 57.5495 53.8087 57.3727 54.1418C57.2 54.4749 56.9779 54.775 56.7148 55.0423L57.4878 54.6887C57.825 54.5366 58.1252 54.3227 58.3801 54.0513C58.635 53.78 58.8242 53.4675 58.9558 53.1179C59.0874 52.7684 59.149 52.4066 59.1326 52.0365C59.1203 51.6623 59.038 51.3087 58.8818 50.9674L45.7935 22.1552C45.7318 22.0154 45.6455 21.8961 45.5345 21.7933C45.4234 21.6905 45.296 21.6124 45.1562 21.5589C45.0122 21.5055 44.8683 21.4849 44.7162 21.489C44.564 21.4973 44.4201 21.5302 44.2844 21.5959Z"/>
</mask>
<g mask="url(#mask5_429_1794)">
<path d="M44.3614 19.8564L40.5332 54.6392L58.9669 56.6664L62.7951 21.8836L44.3614 19.8564Z"/>
</g>
</g>
<mask id="mask6_429_1794" style="mask-type:luminance" maskUnits="userSpaceOnUse" x="0" y="0" width="40" height="38">
<path d="M0.31543 0H39.2636V37.2992H0.31543V0Z"/>
</mask>
<g mask="url(#mask6_429_1794)">
<mask id="mask7_429_1794" style="mask-type:luminance" maskUnits="userSpaceOnUse" x="0" y="0" width="39" height="37">
<path d="M34.2499 1.94462C34.0937 1.60333 33.8798 1.30727 33.6085 1.05233C33.3371 0.797391 33.0246 0.60413 32.6792 0.472549C32.3296 0.345079 31.9678 0.283401 31.5936 0.295736C31.2235 0.308072 30.8658 0.394421 30.5286 0.546563L2.39486 13.3264C2.05357 13.4786 1.75751 13.6924 1.50257 13.9638C1.24763 14.2352 1.05026 14.5477 0.918677 14.8972C0.787095 15.2467 0.729528 15.6044 0.741864 15.9786C0.7542 16.3528 0.836439 16.7064 0.98858 17.0477L9.94435 36.7438C10.1088 35.7611 10.4172 34.8277 10.8778 33.9436C11.3383 33.0636 11.9222 32.27 12.6335 31.571C13.3449 30.8761 14.1467 30.3045 15.039 29.8605C15.9313 29.4164 16.8688 29.1244 17.8557 28.9805C18.3985 28.191 18.97 27.418 19.5704 26.6573C20.1707 25.9007 20.7998 25.1482 21.4577 24.3998C26.4167 18.8076 32.4695 14.5929 38.8964 12.1751L34.2499 1.94462ZM13.4066 10.9292L21.4783 7.26133C21.688 7.16676 21.9018 7.16265 22.1156 7.24077C22.3336 7.32301 22.4898 7.46693 22.5844 7.67663C22.679 7.88634 22.6872 8.10016 22.605 8.31809C22.5227 8.53191 22.3788 8.68817 22.1691 8.78274L14.0974 12.4465C13.8877 12.541 13.6739 12.5493 13.46 12.467C13.2421 12.3889 13.0859 12.2409 12.9913 12.0312C12.8967 11.8215 12.8885 11.6117 12.9707 11.3938C13.053 11.18 13.1969 11.0237 13.4066 10.9292Z"/>
</mask>
<g mask="url(#mask7_429_1794)">
<path d="M1.18692 -3.86548L-3.2334 36.308L38.4409 40.8969L42.8612 0.719314L1.18692 -3.86548Z"/>
</g>
</g>
<mask id="mask8_429_1794" style="mask-type:luminance" maskUnits="userSpaceOnUse" x="12" y="13" width="48" height="59">
<path d="M12.9473 13.0881H60V71.8434H12.9473V13.0881Z"/>
</mask>
<g mask="url(#mask8_429_1794)">
<path d="M22.3765 28.8573C21.4513 30.0374 20.596 31.2464 19.8106 32.4758C19.3542 32.4306 18.8978 32.4347 18.4455 32.4964C17.9027 32.5663 17.3846 32.7102 16.8871 32.9281C16.3854 33.1461 15.9249 33.4298 15.5055 33.7752C15.086 34.1206 14.7201 34.5194 14.4117 34.9676C14.1033 35.4158 13.8648 35.901 13.6921 36.415C13.5194 36.9331 13.4207 37.4636 13.396 38.0064C13.3714 38.5532 13.4207 39.0878 13.5482 39.6182C13.6757 40.1487 13.873 40.6503 14.1403 41.1232C14.4076 41.6002 14.7324 42.0278 15.1231 42.4102C11.6032 53.4302 13.3056 64.631 20.2301 71.5884C16.1469 63.9197 15.9167 53.8455 19.531 44.0797C19.6791 44.0714 19.8312 44.0591 19.9792 44.0427C20.2259 44.0098 20.4644 43.9604 20.7029 43.8987C20.9414 43.8329 21.1717 43.7548 21.402 43.6644C21.6281 43.5698 21.8502 43.467 22.064 43.3436C22.2778 43.2244 22.4834 43.0928 22.6808 42.9448C22.8781 42.7967 23.0632 42.6405 23.2441 42.4678C23.4209 42.2992 23.5854 42.1183 23.7416 41.9291C23.8938 41.7359 24.0377 41.5385 24.1652 41.3288C24.2926 41.1191 24.4078 40.9011 24.5106 40.6791C24.6134 40.4529 24.6997 40.2268 24.7737 39.9924C24.8477 39.758 24.9053 39.5195 24.9464 39.2769C24.9876 39.0343 25.0163 38.7917 25.0287 38.545C25.041 38.2983 25.0369 38.0557 25.0163 37.809C24.9958 37.5623 24.9629 37.3197 24.9135 37.0812C24.8642 36.8386 24.7984 36.6042 24.7162 36.3698C24.638 36.1395 24.5435 35.9134 24.4366 35.6913C24.3255 35.4734 24.2022 35.2596 24.0706 35.054C24.8683 33.8204 25.7318 32.6074 26.6611 31.4191C35.6786 19.9509 48.5859 14.0133 59.8731 14.9673C48.1541 10.4853 32.5905 15.8637 22.3765 28.8573Z"/>
</g>
<mask id="mask9_429_1794" style="mask-type:luminance" maskUnits="userSpaceOnUse" x="46" y="18" width="10" height="8">
<path d="M46.6318 18.3513H55.0531V25.7199H46.6318V18.3513Z"/>
</mask>
<g mask="url(#mask9_429_1794)">
<mask id="mask10_429_1794" style="mask-type:luminance" maskUnits="userSpaceOnUse" x="47" y="18" width="8" height="8">
<path d="M54.0446 21.8632C54.0446 22.2909 53.9624 22.7021 53.7979 23.1009C53.6334 23.4957 53.3991 23.8452 53.0948 24.1495C52.7905 24.4538 52.441 24.6881 52.0462 24.8526C51.6474 25.0171 51.2362 25.0993 50.8086 25.0993C50.3768 25.0993 49.9656 25.0171 49.5668 24.8526C49.172 24.6881 48.8225 24.4538 48.5182 24.1495C48.2139 23.8452 47.9796 23.4957 47.8151 23.1009C47.6506 22.7021 47.5684 22.2909 47.5684 21.8632C47.5684 21.4315 47.6506 21.0203 47.8151 20.6214C47.9796 20.2267 48.2139 19.8772 48.5182 19.5729C48.8225 19.2686 49.172 19.0342 49.5668 18.8698C49.9656 18.7053 50.3768 18.623 50.8086 18.623C51.2362 18.623 51.6474 18.7053 52.0462 18.8698C52.441 19.0342 52.7905 19.2686 53.0948 19.5729C53.3991 19.8772 53.6334 20.2267 53.7979 20.6214C53.9624 21.0203 54.0446 21.4315 54.0446 21.8632Z"/>
</mask>
<g mask="url(#mask10_429_1794)">
<path d="M47.6465 17.9199L46.8652 25.0212L53.9665 25.8025L54.7478 18.7012L47.6465 17.9199Z"/>
</g>
</g>
<mask id="mask11_429_1794" style="mask-type:luminance" maskUnits="userSpaceOnUse" x="4" y="40" width="9" height="10">
<path d="M4.52637 40.457H12.9476V49.9309H4.52637V40.457Z"/>
</mask>
<g mask="url(#mask11_429_1794)">
<mask id="mask12_429_1794" style="mask-type:luminance" maskUnits="userSpaceOnUse" x="4" y="41" width="9" height="9">
<path d="M12.9247 45.4819C12.9247 46.0164 12.8219 46.5345 12.6163 47.028C12.4107 47.5255 12.1188 47.9655 11.7405 48.3438C11.3581 48.7221 10.9222 49.0181 10.4247 49.2237C9.92711 49.4252 9.41312 49.528 8.87446 49.528C8.33991 49.528 7.82181 49.4252 7.32427 49.2237C6.83084 49.0181 6.39086 48.7221 6.01256 48.3438C5.63016 47.9655 5.33821 47.5255 5.13261 47.028C4.92702 46.5345 4.82422 46.0164 4.82422 45.4819C4.82422 44.9432 4.92702 44.4251 5.13261 43.9317C5.33821 43.4341 5.63016 42.9942 6.01256 42.6159C6.39086 42.2376 6.83084 41.9456 7.32427 41.74C7.82181 41.5344 8.33991 41.4316 8.87446 41.4316C9.41312 41.4316 9.92711 41.5344 10.4247 41.74C10.9222 41.9456 11.3581 42.2376 11.7405 42.6159C12.1188 42.9942 12.4107 43.4341 12.6163 43.9317C12.8219 44.4251 12.9247 44.9432 12.9247 45.4819Z"/>
</mask>
<g mask="url(#mask12_429_1794)">
<path d="M4.922 40.5474L3.94336 49.4332L12.8292 50.4119L13.8037 41.526L4.922 40.5474Z"/>
</g>
</g>
<mask id="mask13_429_1794" style="mask-type:luminance" maskUnits="userSpaceOnUse" x="6" y="3" width="6" height="5">
<path d="M6.63086 3.6145H11.8941V7.82511H6.63086V3.6145Z"/>
</mask>
<g mask="url(#mask13_429_1794)">
<mask id="mask14_429_1794" style="mask-type:luminance" maskUnits="userSpaceOnUse" x="7" y="3" width="5" height="5">
<path d="M11.5789 5.73231C11.5789 5.99547 11.5254 6.2463 11.4267 6.4889C11.328 6.72739 11.1841 6.94121 10.9991 7.12625C10.8141 7.31128 10.6043 7.45109 10.3617 7.55389C10.1191 7.65257 9.86831 7.70192 9.60926 7.70192C9.3461 7.70192 9.09527 7.65257 8.85267 7.55389C8.61417 7.45109 8.40035 7.31128 8.21532 7.12625C8.03028 6.94121 7.88636 6.72739 7.78768 6.4889C7.68899 6.2463 7.63965 5.99547 7.63965 5.73231C7.63965 5.47325 7.68899 5.22243 7.78768 4.97982C7.88636 4.73722 8.03028 4.5234 8.21532 4.34248C8.40035 4.15744 8.61417 4.01352 8.85267 3.91484C9.09527 3.81204 9.3461 3.7627 9.60926 3.7627C9.86831 3.7627 10.1191 3.81204 10.3617 3.91484C10.6043 4.01352 10.8141 4.15744 10.9991 4.34248C11.1841 4.5234 11.328 4.73722 11.4267 4.97982C11.5254 5.22243 11.5789 5.47325 11.5789 5.73231Z"/>
</mask>
<g mask="url(#mask14_429_1794)">
<path d="M7.68499 3.33496L7.20801 7.65659L11.5296 8.12946L12.0066 3.81194L7.68499 3.33496Z"/>
</g>
</g>
<mask id="mask15_429_1794" style="mask-type:luminance" maskUnits="userSpaceOnUse" x="0" y="26" width="3" height="4">
<path d="M0 26.7727H2.42192V29.9307H0V26.7727Z"/>
</mask>
<g mask="url(#mask15_429_1794)">
<mask id="mask16_429_1794" style="mask-type:luminance" maskUnits="userSpaceOnUse" x="0" y="27" width="3" height="3">
<path d="M2.06516 28.1749C2.06516 28.4586 1.96236 28.7012 1.76088 28.9027C1.5594 29.1042 1.31679 29.207 1.03307 29.207C0.749346 29.207 0.506744 29.1042 0.305259 28.9027C0.103775 28.7012 0.000976562 28.4586 0.000976562 28.1749C0.000976562 27.8912 0.103775 27.6486 0.305259 27.4471C0.506744 27.2456 0.749346 27.1428 1.03307 27.1428C1.31679 27.1428 1.5594 27.2456 1.76088 27.4471C1.96236 27.6486 2.06516 27.8912 2.06516 28.1749Z"/>
</mask>
<g mask="url(#mask16_429_1794)">
<path d="M0.0250356 26.9207L-0.22168 29.1822L2.03988 29.4289L2.28659 27.1674L0.0250356 26.9207Z"/>
</g>
</g>
</svg>
